{
  "accessors": [
    {
      "bufferView": 0,
      "componentType": 5126,
      "count": 30,
      "type": "MAT4"
    },
    {
      "bufferView": 1,
      "componentType": 5125,
      "count": 28479,
      "max": [
        8056
      ],
      "min": [
        0
      ],
      "type": "SCALAR"
    },
    {
      "bufferView": 2,
      "componentType": 5126,
      "count": 8057,
      "max": [
        -5.554980754852295,
        1.8541977405548096,
        3.4772586822509766
      ],
      "min": [
        -26.977340698242188,
        -3.2207281589508057,
        -7.853689193725586
      ],
      "type": "VEC3"
    },
    {
      "bufferView": 3,
      "componentType": 5126,
      "count": 8057,
      "type": "VEC3"
    },
    {
      "bufferView": 4,
      "componentType": 5126,
      "count": 8057,
      "type": "VEC2"
    },
    {
      "bufferView": 5,
      "componentType": 5123,
      "count": 8057,
      "type": "VEC4"
    },
    {
      "bufferView": 6,
      "componentType": 5126,
      "count": 8057,
      "type": "VEC4"
    },
    {
      "bufferView": 7,
      "componentType": 5125,
      "count": 15711,
      "max": [
        5770
      ],
      "min": [
        0
      ],
      "type": "SCALAR"
    },
    {
      "bufferView": 8,
      "componentType": 5126,
      "count": 5771,
      "max": [
        -7.139949321746826,
        2.7812914848327637,
        3.243572473526001
      ],
      "min": [
        -27.9323787689209,
        -2.781301498413086,
        -7.274561882019043
      ],
      "type": "VEC3"
    },
    {
      "bufferView": 9,
      "componentType": 5126,
      "count": 5771,
      "type": "VEC3"
    },
    {
      "bufferView": 10,
      "componentType": 5126,
      "count": 5771,
      "type": "VEC2"
    },
    {
      "bufferView": 11,
      "componentType": 5123,
      "count": 5771,
      "type": "VEC4"
    },
    {
      "bufferView": 12,
      "componentType": 5126,
      "count": 5771,
      "type": "VEC4"
    },
    {
      "bufferView": 13,
      "componentType": 5125,
      "count": 4086,
      "max": [
        1097
      ],
      "min": [
        0
      ],
      "type": "SCALAR"
    },
    {
      "bufferView": 14,
      "componentType": 5126,
      "count": 1098,
      "max": [
        -10.914380073547363,
        2.6695375442504883,
        3.2435801029205322
      ],
      "min": [
        -25.971500396728516,
        -2.6670053005218506,
        2.169159173965454
      ],
      "type": "VEC3"
    },
    {
      "bufferView": 15,
      "componentType": 5126,
      "count": 1098,
      "type": "VEC3"
    },
    {
      "bufferView": 16,
      "componentType": 5126,
      "count": 1098,
      "type": "VEC2"
    },
    {
      "bufferView": 17,
      "componentType": 5123,
      "count": 1098,
      "type": "VEC4"
    },
    {
      "bufferView": 18,
      "componentType": 5126,
      "count": 1098,
      "type": "VEC4"
    },
    {
      "bufferView": 19,
      "componentType": 5125,
      "count": 8574,
      "max": [
        2709
      ],
      "min": [
        0
      ],
      "type": "SCALAR"
    },
    {
      "bufferView": 20,
      "componentType": 5126,
      "count": 2710,
      "max": [
        -20.147279739379883,
        1.2953996658325195,
        7.515860080718994
      ],
      "min": [
        -22.72538185119629,
        -1.9431018829345703,
        2.758439779281616
      ],
      "type": "VEC3"
    },
    {
      "bufferView": 21,
      "componentType": 5126,
      "count": 2710,
      "type": "VEC3"
    },
    {
      "bufferView": 22,
      "componentType": 5126,
      "count": 2710,
      "type": "VEC2"
    },
    {
      "bufferView": 23,
      "componentType": 5123,
      "count": 2710,
      "type": "VEC4"
    },
    {
      "bufferView": 24,
      "componentType": 5126,
      "count": 2710,
      "type": "VEC4"
    },
    {
      "bufferView": 25,
      "componentType": 5125,
      "count": 8574,
      "max": [
        2711
      ],
      "min": [
        0
      ],
      "type": "SCALAR"
    },
    {
      "bufferView": 26,
      "componentType": 5126,
      "count": 2712,
      "max": [
        -20.147279739379883,
        1.295399785041809,
        4.714239597320557
      ],
      "min": [
        -25.257761001586914,
        -1.9431020021438599,
        2.7584376335144043
      ],
      "type": "VEC3"
    },
    {
      "bufferView": 27,
      "componentType": 5126,
      "count": 2712,
      "type": "VEC3"
    },
    {
      "bufferView": 28,
      "componentType": 5126,
      "count": 2712,
      "type": "VEC2"
    },
    {
      "bufferView": 29,
      "componentType": 5123,
      "count": 2712,
      "type": "VEC4"
    },
    {
      "bufferView": 30,
      "componentType": 5126,
      "count": 2712,
      "type": "VEC4"
    },
    {
      "bufferView": 31,
      "componentType": 5125,
      "count": 4110,
      "max": [
        1143
      ],
      "min": [
        0
      ],
      "type": "SCALAR"
    },
    {
      "bufferView": 32,
      "componentType": 5126,
      "count": 1144,
      "max": [
        -21.168357849121094,
        1.813559889793396,
        -2.189481258392334
      ],
      "min": [
        -22.38248062133789,
        -1.882139801979065,
        -5.110480785369873
      ],
      "type": "VEC3"
    },
    {
      "bufferView": 33,
      "componentType": 5126,
      "count": 1144,
      "type": "VEC3"
    },
    {
      "bufferView": 34,
      "componentType": 5126,
      "count": 1144,
      "type": "VEC2"
    },
    {
      "bufferView": 35,
      "componentType": 5123,
      "count": 1144,
      "type": "VEC4"
    },
    {
      "bufferView": 36,
      "componentType": 5126,
      "count": 1144,
      "type": "VEC4"
    }
  ],
  "asset": {
    "generator": "Greyhound",
    "version": "2.0"
  },
  "bufferViews": [
    {
      "buffer": 0,
      "byteLength": 1920
    },
    {
      "buffer": 0,
      "byteLength": 113916,
      "byteOffset": 1920,
      "target": 34963
    },
    {
      "buffer": 0,
      "byteLength": 96684,
      "byteOffset": 115836,
      "target": 34962
    },
    {
      "buffer": 0,
      "byteLength": 96684,
      "byteOffset": 212520,
      "target": 34962
    },
    {
      "buffer": 0,
      "byteLength": 64456,
      "byteOffset": 309204,
      "target": 34962
    },
    {
      "buffer": 0,
      "byteLength": 64456,
      "byteOffset": 373660,
      "target": 34962
    },
    {
      "buffer": 0,
      "byteLength": 128912,
      "byteOffset": 438116,
      "target": 34962
    },
    {
      "buffer": 0,
      "byteLength": 62844,
      "byteOffset": 567028,
      "target": 34963
    },
    {
      "buffer": 0,
      "byteLength": 69252,
      "byteOffset": 629872,
      "target": 34962
    },
    {
      "buffer": 0,
      "byteLength": 69252,
      "byteOffset": 699124,
      "target": 34962
    },
    {
      "buffer": 0,
      "byteLength": 46168,
      "byteOffset": 768376,
      "target": 34962
    },
    {
      "buffer": 0,
      "byteLength": 46168,
      "byteOffset": 814544,
      "target": 34962
    },
    {
      "buffer": 0,
      "byteLength": 92336,
      "byteOffset": 860712,
      "target": 34962
    },
    {
      "buffer": 0,
      "byteLength": 16344,
      "byteOffset": 953048,
      "target": 34963
    },
    {
      "buffer": 0,
      "byteLength": 13176,
      "byteOffset": 969392,
      "target": 34962
    },
    {
      "buffer": 0,
      "byteLength": 13176,
      "byteOffset": 982568,
      "target": 34962
    },
    {
      "buffer": 0,
      "byteLength": 8784,
      "byteOffset": 995744,
      "target": 34962
    },
    {
      "buffer": 0,
      "byteLength": 8784,
      "byteOffset": 1004528,
      "target": 34962
    },
    {
      "buffer": 0,
      "byteLength": 17568,
      "byteOffset": 1013312,
      "target": 34962
    },
    {
      "buffer": 0,
      "byteLength": 34296,
      "byteOffset": 1030880,
      "target": 34963
    },
    {
      "buffer": 0,
      "byteLength": 32520,
      "byteOffset": 1065176,
      "target": 34962
    },
    {
      "buffer": 0,
      "byteLength": 32520,
      "byteOffset": 1097696,
      "target": 34962
    },
    {
      "buffer": 0,
      "byteLength": 21680,
      "byteOffset": 1130216,
      "target": 34962
    },
    {
      "buffer": 0,
      "byteLength": 21680,
      "byteOffset": 1151896,
      "target": 34962
    },
    {
      "buffer": 0,
      "byteLength": 43360,
      "byteOffset": 1173576,
      "target": 34962
    },
    {
      "buffer": 0,
      "byteLength": 34296,
      "byteOffset": 1216936,
      "target": 34963
    },
    {
      "buffer": 0,
      "byteLength": 32544,
      "byteOffset": 1251232,
      "target": 34962
    },
    {
      "buffer": 0,
      "byteLength": 32544,
      "byteOffset": 1283776,
      "target": 34962
    },
    {
      "buffer": 0,
      "byteLength": 21696,
      "byteOffset": 1316320,
      "target": 34962
    },
    {
      "buffer": 0,
      "byteLength": 21696,
      "byteOffset": 1338016,
      "target": 34962
    },
    {
      "buffer": 0,
      "byteLength": 43392,
      "byteOffset": 1359712,
      "target": 34962
    },
    {
      "buffer": 0,
      "byteLength": 16440,
      "byteOffset": 1403104,
      "target": 34963
    },
    {
      "buffer": 0,
      "byteLength": 13728,
      "byteOffset": 1419544,
      "target": 34962
    },
    {
      "buffer": 0,
      "byteLength": 13728,
      "byteOffset": 1433272,
      "target": 34962
    },
    {
      "buffer": 0,
      "byteLength": 9152,
      "byteOffset": 1447000,
      "target": 34962
    },
    {
      "buffer": 0,
      "byteLength": 9152,
      "byteOffset": 1456152,
      "target": 34962
    },
    {
      "buffer": 0,
      "byteLength": 18304,
      "byteOffset": 1465304,
      "target": 34962
    }
  ],
  "buffers": [
    {
      "byteLength": 1483608,
      "uri": "att_vm_p01_dm_msecho_rec_v0_LOD0.bin"
    }
  ],
  "images": [
    {
      "uri": "_images\\\\xmaterial_6ec111edc6ba30e4\\\\ximage_4d01201549d0e699.dds"
    },
    {
      "uri": "_images\\\\xmaterial_6a1802febcf8e16\\\\ximage_1fb2235bef483f63.dds"
    }
  ],
  "materials": [
    {
      "name": "xmaterial_6ec111edc6ba30e4",
      "pbrMetallicRoughness": {
        "baseColorTexture": {
          "index": 0
        },
        "metallicFactor": 0.0,
        "roughnessFactor": 0.75
      }
    },
    {
      "name": "xmaterial_6a1802febcf8e16",
      "pbrMetallicRoughness": {
        "baseColorTexture": {
          "index": 1
        },
        "metallicFactor": 0.0,
        "roughnessFactor": 0.75
      }
    }
  ],
  "meshes": [
    {
      "primitives": [
        {
          "attributes": {
            "JOINTS_0": 5,
            "NORMAL": 3,
            "POSITION": 2,
            "TEXCOORD_0": 4,
            "WEIGHTS_0": 6
          },
          "indices": 1,
          "material": 0,
          "mode": 4
        }
      ]
    },
    {
      "primitives": [
        {
          "attributes": {
            "JOINTS_0": 11,
            "NORMAL": 9,
            "POSITION": 8,
            "TEXCOORD_0": 10,
            "WEIGHTS_0": 12
          },
          "indices": 7,
          "material": 0,
          "mode": 4
        }
      ]
    },
    {
      "primitives": [
        {
          "attributes": {
            "JOINTS_0": 17,
            "NORMAL": 15,
            "POSITION": 14,
            "TEXCOORD_0": 16,
            "WEIGHTS_0": 18
          },
          "indices": 13,
          "material": 0,
          "mode": 4
        }
      ]
    },
    {
      "primitives": [
        {
          "attributes": {
            "JOINTS_0": 23,
            "NORMAL": 21,
            "POSITION": 20,
            "TEXCOORD_0": 22,
            "WEIGHTS_0": 24
          },
          "indices": 19,
          "material": 1,
          "mode": 4
        }
      ]
    },
    {
      "primitives": [
        {
          "attributes": {
            "JOINTS_0": 29,
            "NORMAL": 27,
            "POSITION": 26,
            "TEXCOORD_0": 28,
            "WEIGHTS_0": 30
          },
          "indices": 25,
          "material": 1,
          "mode": 4
        }
      ]
    },
    {
      "primitives": [
        {
          "attributes": {
            "JOINTS_0": 35,
            "NORMAL": 33,
            "POSITION": 32,
            "TEXCOORD_0": 34,
            "WEIGHTS_0": 36
          },
          "indices": 31,
          "material": 0,
          "mode": 4
        }
      ]
    }
  ],
  "nodes": [
    {
      "children": [
        1
      ],
      "name": "j_gun",
      "rotation": [
        0.0,
        0.0,
        0.0,
        1.0
      ],
      "translation": [
        0.0,
        0.0,
        0.0
      ]
    },
    {
      "children": [
        2,
        3,
        4,
        5,
        6,
        7,
        8,
        9,
        10,
        11,
        12,
        13,
        14,
        15,
        16,
        17,
        18,
        19,
        20,
        21,
        22,
        23,
        24,
        25,
        26,
        27,
        28,
        29
      ],
      "name": "tag_sling",
      "rotation": [
        0.0,
        0.0,
        0.0,
        0.999969482421875
      ],
      "translation": [
        -26.730960845947266,
        -1.780539870262146,
        -1.3233400583267212
      ]
    },
    {
      "name": "j_trigger",
      "rotation": [
        0.0,
        0.0,
        0.0,
        0.999969482421875
      ],
      "translation": [
        7.843520641326904,
        1.780539870262146,
        -2.2732999324798584
      ]
    },
    {
      "name": "tag_acog_2",
      "rotation": [
        0.0,
        0.0,
        0.0,
        0.999969482421875
      ],
      "translation": [
        6.840220928192139,
        1.780539870262146,
        4.782819747924805
      ]
    },
    {
      "name": "tag_align_gun",
      "rotation": [
        0.0,
        0.0,
        0.0,
        0.999969482421875
      ],
      "translation": [
        5.191761493682861,
        1.780539870262146,
        8.308340072631836
      ]
    },
    {
      "name": "tag_barrel_attach",
      "rotation": [
        0.0,
        0.0,
        0.0,
        0.999969482421875
      ],
      "translation": [
        19.70277976989746,
        1.780539870262146,
        4.782819747924805
      ]
    },
    {
      "name": "tag_brass",
      "rotation": [
        0.0,
        0.0,
        -0.70709228515625,
        0.70709228515625
      ],
      "translation": [
        12.913359642028809,
        0.20573991537094116,
        2.3545801639556885
      ]
    },
    {
      "name": "tag_cosdisplay",
      "rotation": [
        0.0,
        0.0,
        0.0,
        0.999969482421875
      ],
      "translation": [
        7.505701065063477,
        3.200399875640869,
        2.0523200035095215
      ]
    },
    {
      "name": "tag_cosmetic",
      "rotation": [
        0.0,
        0.0,
        0.0,
        0.999969482421875
      ],
      "translation": [
        16.367759704589844,
        3.304539918899536,
        1.8364200592041016
      ]
    },
    {
      "name": "tag_holo",
      "rotation": [
        0.0,
        0.0,
        0.0,
        0.999969482421875
      ],
      "translation": [
        12.496800422668457,
        1.780539870262146,
        4.782819747924805
      ]
    },
    {
      "name": "tag_hybrid",
      "rotation": [
        0.0,
        0.0,
        0.0,
        0.999969482421875
      ],
      "translation": [
        7.2390007972717285,
        1.780539870262146,
        4.782819747924805
      ]
    },
    {
      "name": "tag_ik_loc_ri",
      "rotation": [
        -0.80865478515625,
        0.01141357421875,
        -0.11492919921875,
        0.5767822265625
      ],
      "translation": [
        -4.086860656738281,
        -0.6121399998664856,
        -8.420100212097168
      ]
    },
    {
      "name": "tag_mag_attach",
      "rotation": [
        0.0,
        0.0,
        0.0,
        0.999969482421875
      ],
      "translation": [
        18.52676010131836,
        1.780539870262146,
        -5.199379920959473
      ]
    },
    {
      "name": "tag_pistolgrip_attach",
      "rotation": [
        0.0,
        0.0,
        0.0,
        0.999969482421875
      ],
      "translation": [
        5.928361415863037,
        1.780539870262146,
        -3.228339910507202
      ]
    },
    {
      "name": "tag_reflex",
      "rotation": [
        0.0,
        0.0,
        0.0,
        0.999969482421875
      ],
      "translation": [
        11.810999870300293,
        1.780539870262146,
        4.782819747924805
      ]
    },
    {
      "name": "tag_scope",
      "rotation": [
        0.0,
        0.0,
        0.0,
        0.999969482421875
      ],
      "translation": [
        11.010899543762207,
        1.780539870262146,
        4.782819747924805
      ]
    },
    {
      "name": "tag_sight_off",
      "rotation": [
        0.0,
        0.0,
        0.0,
        0.999969482421875
      ],
      "translation": [
        6.832600116729736,
        1.780539870262146,
        6.141719818115234
      ]
    },
    {
      "name": "tag_sight_on",
      "rotation": [
        0.0,
        0.0,
        0.0,
        0.999969482421875
      ],
      "translation": [
        6.832600116729736,
        1.780539870262146,
        6.141719818115234
      ]
    },
    {
      "name": "tag_stock_attach",
      "rotation": [
        0.0,
        0.0,
        0.0,
        0.999969482421875
      ],
      "translation": [
        -1.2014188766479492,
        1.780539870262146,
        1.724660038948059
      ]
    },
    {
      "name": "tag_thermal",
      "rotation": [
        0.0,
        0.0,
        0.0,
        0.999969482421875
      ],
      "translation": [
        6.7564005851745605,
        1.780539870262146,
        4.782819747924805
      ]
    },
    {
      "name": "j_bolt",
      "rotation": [
        0.0,
        0.0,
        0.0,
        0.999969482421875
      ],
      "translation": [
        14.68120002746582,
        1.780539870262146,
        1.8668999671936035
      ]
    },
    {
      "name": "j_boltrel",
      "rotation": [
        0.0,
        0.0,
        0.0,
        0.999969482421875
      ],
      "translation": [
        11.325860023498535,
        3.1902401447296143,
        -0.4013199806213379
      ]
    },
    {
      "name": "j_charginghandle",
      "rotation": [
        0.0,
        0.0,
        0.0,
        0.999969482421875
      ],
      "translation": [
        1.3639792203903198,
        1.780539870262146,
        3.683000087738037
      ]
    },
    {
      "name": "j_charginghandleassistleft",
      "rotation": [
        0.0,
        0.0,
        0.0,
        0.999969482421875
      ],
      "translation": [
        2.5247609615325928,
        2.4206197261810303,
        4.145279884338379
      ]
    },
    {
      "name": "j_charginghandleassistright",
      "rotation": [
        0.0,
        0.0,
        0.0,
        0.999969482421875
      ],
      "translation": [
        2.5247609615325928,
        1.1353799104690552,
        4.145279884338379
      ]
    },
    {
      "name": "j_ejectioncover",
      "rotation": [
        0.0,
        0.0,
        0.0,
        0.999969482421875
      ],
      "translation": [
        14.38148021697998,
        0.10413987189531326,
        1.0134600400924683
      ]
    },
    {
      "name": "j_firesel",
      "rotation": [
        0.0,
        0.0,
        0.0,
        0.999969482421875
      ],
      "translation": [
        4.9834794998168945,
        1.7449798583984375,
        -1.6992599964141846
      ]
    },
    {
      "name": "j_forwardassist",
      "rotation": [
        0.0,
        0.0,
        0.0,
        0.999969482421875
      ],
      "translation": [
        1.4147803783416748,
        -1.2547601461410522,
        1.7068800926208496
      ]
    },
    {
      "name": "j_magrel",
      "rotation": [
        0.0,
        0.0,
        0.0,
        0.999969482421875
      ],
      "translation": [
        11.305540084838867,
        1.6052799224853516,
        -1.953259825706482
      ]
    },
    {
      "name": "tag_menu",
      "rotation": [
        0.0,
        0.0,
        0.0,
        0.999969482421875
      ],
      "translation": [
        20.020278930664063,
        1.780539870262146,
        1.2268201112747192
      ]
    },
    {
      "mesh": 0,
      "skin": 0
    },
    {
      "mesh": 1,
      "skin": 0
    },
    {
      "mesh": 2,
      "skin": 0
    },
    {
      "mesh": 3,
      "skin": 0
    },
    {
      "mesh": 4,
      "skin": 0
    },
    {
      "mesh": 5,
      "skin": 0
    }
  ],
  "scene": 0,
  "scenes": [
    {
      "nodes": [
        0
      ]
    }
  ],
  "skins": [
    {
      "inverseBindMatrices": 0,
      "joints": [
        0,
        1,
        2,
        3,
        4,
        5,
        6,
        7,
        8,
        9,
        10,
        11,
        12,
        13,
        14,
        15,
        16,
        17,
        18,
        19,
        20,
        21,
        22,
        23,
        24,
        25,
        26,
        27,
        28,
        29
      ]
    }
  ],
  "textures": [
    {
      "source": 0
    },
    {
      "source": 1
    }
  ]
}
